<?xml version="1.0" encoding="utf-8"?>
<!-- Generator: Adobe Illustrator 18.0.0, SVG Export Plug-In . SVG Version: 6.00 Build 0)  -->
<!DOCTYPE svg PUBLIC "-//W3C//DTD SVG 1.1//EN" "http://www.w3.org/Graphics/SVG/1.1/DTD/svg11.dtd">
<svg version="1.1" id="Layer_1" xmlns="http://www.w3.org/2000/svg" xmlns:xlink="http://www.w3.org/1999/xlink" x="0px" y="0px"
	 viewBox="0 0 18 18" enable-background="new 0 0 18 18" xml:space="preserve">
<g>
	<g opacity="0.2">
		<path fill="#AE74F0" d="M17,12.7c0,0.3-0.1,0.5-0.3,0.7c-0.2,0.2-0.4,0.3-0.7,0.3c-0.3,0-0.5-0.1-0.7-0.3C15.1,13.3,15,13,15,12.7
			c0-0.4,0.2-0.7,0.5-0.9V8.4l-2,1.1c0,0.1,0,0.1,0,0.2V14c0,0.2-0.1,0.3-0.2,0.4c-0.1,0.1-0.3,0.2-0.5,0.3
			c-0.2,0.1-0.7,0.2-1.4,0.4c-0.7,0.1-1.6,0.2-2.5,0.2S7.2,15.2,6.5,15s-1.2-0.3-1.4-0.4c-0.2-0.1-0.3-0.2-0.5-0.3
			c-0.1-0.1-0.2-0.2-0.2-0.4V9.7c0-0.1,0-0.2,0.1-0.2L1.2,7.7C1.1,7.6,1,7.5,1,7.3c0-0.2,0.1-0.3,0.2-0.4l7.5-4
			c0.1-0.1,0.3-0.1,0.5,0l7.5,4C16.9,6.9,17,7.1,17,7.3c0,0.2-0.1,0.3-0.3,0.5l-0.2,0.1v4C16.8,12.1,17,12.4,17,12.7z M15.4,7.2
			L9,3.8L2.5,7.3L9,10.7L15.4,7.2z"/>
	</g>
	<g>
		<path fill="#AE74F0" d="M17,12.7c0,0.3-0.1,0.5-0.3,0.7c-0.2,0.2-0.4,0.3-0.7,0.3c-0.3,0-0.5-0.1-0.7-0.3C15.1,13.3,15,13,15,12.7
			c0-0.4,0.2-0.7,0.5-0.9V8.4l-2,1.1c0,0.1,0,0.1,0,0.2V14c0,0.2-0.1,0.3-0.2,0.4c-0.1,0.1-0.3,0.2-0.5,0.3
			c-0.2,0.1-0.7,0.2-1.4,0.4c-0.7,0.1-1.6,0.2-2.5,0.2S7.2,15.2,6.5,15s-1.2-0.3-1.4-0.4c-0.2-0.1-0.3-0.2-0.5-0.3
			c-0.1-0.1-0.2-0.2-0.2-0.4V9.7c0-0.1,0-0.2,0.1-0.2L1.2,7.7C1.1,7.6,1,7.5,1,7.3c0-0.2,0.1-0.3,0.2-0.4l7.5-4
			c0.1-0.1,0.3-0.1,0.5,0l7.5,4C16.9,6.9,17,7.1,17,7.3c0,0.2-0.1,0.3-0.3,0.5l-0.2,0.1v4C16.8,12.1,17,12.4,17,12.7z M15.4,7.2
			L9,3.8L2.5,7.3L9,10.7L15.4,7.2z M12.5,9.9l-3.3,1.8c-0.1,0-0.1,0.1-0.2,0.1s-0.2,0-0.2-0.1L5.5,10v3.7c0.8,0.4,1.9,0.6,3.5,0.6
			c1.6,0,2.7-0.2,3.5-0.6V9.9z"/>
	</g>
</g>
</svg>
