<?xml version="1.0" encoding="utf-8"?>
<!-- Generator: Adobe Illustrator 18.0.0, SVG Export Plug-In . SVG Version: 6.00 Build 0)  -->
<!DOCTYPE svg PUBLIC "-//W3C//DTD SVG 1.1//EN" "http://www.w3.org/Graphics/SVG/1.1/DTD/svg11.dtd">
<svg version="1.1" id="Layer_1" xmlns="http://www.w3.org/2000/svg" xmlns:xlink="http://www.w3.org/1999/xlink" x="0px" y="0px"
	 viewBox="0 0 18 18" enable-background="new 0 0 18 18" xml:space="preserve">
<g>
	<g opacity="0.2">
		<path fill="#FF5900" d="M13.9,2.1c0.8-0.3,1.3-0.5,1.5-0.7C15.7,1.2,15.9,1.1,16,1v8.5l-0.5,0.4c-0.3,0.2-0.9,0.5-1.6,0.8
			c-0.7,0.2-1.4,0.4-2.2,0.4c-0.7,0-1.4-0.1-2-0.4s-1.4-0.5-2.1-0.8S6.1,9.5,5.2,9.5c-0.8,0-1.5,0.2-2.2,0.6v6.4
			c0,0.1,0,0.3-0.1,0.4S2.6,17,2.5,17c-0.1,0-0.3,0-0.4-0.1S2,16.6,2,16.5v-14l0.4-0.4C2.6,1.9,3,1.6,3.6,1.4C4.1,1.1,4.7,1,5.3,1
			C6.2,1,7,1.1,7.7,1.4c0.7,0.2,1.4,0.5,2,0.8c0.6,0.2,1.3,0.4,2,0.4C12.4,2.5,13.1,2.4,13.9,2.1z"/>
	</g>
	<g>
		<path fill="#FF5900" d="M13.9,2.1c0.8-0.3,1.3-0.5,1.5-0.7C15.7,1.2,15.9,1.1,16,1v8.5l-0.5,0.4c-0.3,0.2-0.9,0.5-1.6,0.8
			c-0.7,0.2-1.4,0.4-2.2,0.4c-0.7,0-1.4-0.1-2-0.4s-1.4-0.5-2.1-0.8S6.1,9.5,5.2,9.5c-0.8,0-1.5,0.2-2.2,0.6v6.4
			c0,0.1,0,0.3-0.1,0.4S2.6,17,2.5,17c-0.1,0-0.3,0-0.4-0.1S2,16.6,2,16.5v-14l0.4-0.4C2.6,1.9,3,1.6,3.6,1.4C4.1,1.1,4.7,1,5.3,1
			C6.2,1,7,1.1,7.7,1.4c0.7,0.2,1.4,0.5,2,0.8c0.6,0.2,1.3,0.4,2,0.4C12.4,2.5,13.1,2.4,13.9,2.1z M15,2.7c-1.1,0.5-2.2,0.8-3.4,0.8
			c-0.9,0-2-0.3-3.2-0.8C7.3,2.2,6.3,2,5.3,2C4.4,2,3.7,2.3,3,2.9V9c0.7-0.3,1.4-0.5,2.2-0.5c1.2,0,2.6,0.3,4.1,0.9
			c1,0.4,1.9,0.6,2.5,0.6c1.1,0,2.2-0.3,3.2-1V2.7z"/>
	</g>
</g>
</svg>
