<?xml version="1.0" encoding="utf-8"?>
<!-- Generator: Adobe Illustrator 18.0.0, SVG Export Plug-In . SVG Version: 6.00 Build 0)  -->
<!DOCTYPE svg PUBLIC "-//W3C//DTD SVG 1.1//EN" "http://www.w3.org/Graphics/SVG/1.1/DTD/svg11.dtd">
<svg version="1.1" id="Layer_1" xmlns="http://www.w3.org/2000/svg" xmlns:xlink="http://www.w3.org/1999/xlink" x="0px" y="0px"
	 viewBox="0 0 18 18" enable-background="new 0 0 18 18" xml:space="preserve">
<g>
	<g opacity="0.2">
		<path fill="#4CC159" d="M7,8H2C1.7,8,1.5,7.9,1.3,7.7C1.1,7.5,1,7.3,1,7V2c0-0.3,0.1-0.5,0.3-0.7C1.5,1.1,1.7,1,2,1h5
			c0.3,0,0.5,0.1,0.7,0.3C7.9,1.5,8,1.7,8,2v5c0,0.3-0.1,0.5-0.3,0.7C7.5,7.9,7.3,8,7,8z M7,17H2c-0.3,0-0.5-0.1-0.7-0.3
			C1.1,16.5,1,16.3,1,16v-5c0-0.3,0.1-0.5,0.3-0.7C1.5,10.1,1.7,10,2,10h5c0.3,0,0.5,0.1,0.7,0.3C7.9,10.5,8,10.7,8,11v5
			c0,0.3-0.1,0.5-0.3,0.7C7.5,16.9,7.3,17,7,17z M7,2H2v5h5V2z M16,8h-5c-0.3,0-0.5-0.1-0.7-0.3C10.1,7.5,10,7.3,10,7V2
			c0-0.3,0.1-0.5,0.3-0.7C10.5,1.1,10.7,1,11,1h5c0.3,0,0.5,0.1,0.7,0.3C16.9,1.5,17,1.7,17,2v5c0,0.3-0.1,0.5-0.3,0.7
			C16.5,7.9,16.3,8,16,8z M16,17h-5c-0.3,0-0.5-0.1-0.7-0.3C10.1,16.5,10,16.3,10,16v-5c0-0.3,0.1-0.5,0.3-0.7
			c0.2-0.2,0.4-0.3,0.7-0.3h5c0.3,0,0.5,0.1,0.7,0.3c0.2,0.2,0.3,0.4,0.3,0.7v5c0,0.3-0.1,0.5-0.3,0.7C16.5,16.9,16.3,17,16,17z"/>
	</g>
	<g>
		<path fill="#4CC159" d="M7,8H2C1.7,8,1.5,7.9,1.3,7.7C1.1,7.5,1,7.3,1,7V2c0-0.3,0.1-0.5,0.3-0.7C1.5,1.1,1.7,1,2,1h5
			c0.3,0,0.5,0.1,0.7,0.3C7.9,1.5,8,1.7,8,2v5c0,0.3-0.1,0.5-0.3,0.7C7.5,7.9,7.3,8,7,8z M7,17H2c-0.3,0-0.5-0.1-0.7-0.3
			C1.1,16.5,1,16.3,1,16v-5c0-0.3,0.1-0.5,0.3-0.7C1.5,10.1,1.7,10,2,10h5c0.3,0,0.5,0.1,0.7,0.3C7.9,10.5,8,10.7,8,11v5
			c0,0.3-0.1,0.5-0.3,0.7C7.5,16.9,7.3,17,7,17z M7,2H2v5h5V2z M7,11H2v5h5V11z M16,8h-5c-0.3,0-0.5-0.1-0.7-0.3
			C10.1,7.5,10,7.3,10,7V2c0-0.3,0.1-0.5,0.3-0.7C10.5,1.1,10.7,1,11,1h5c0.3,0,0.5,0.1,0.7,0.3C16.9,1.5,17,1.7,17,2v5
			c0,0.3-0.1,0.5-0.3,0.7C16.5,7.9,16.3,8,16,8z M16,17h-5c-0.3,0-0.5-0.1-0.7-0.3C10.1,16.5,10,16.3,10,16v-5
			c0-0.3,0.1-0.5,0.3-0.7c0.2-0.2,0.4-0.3,0.7-0.3h5c0.3,0,0.5,0.1,0.7,0.3c0.2,0.2,0.3,0.4,0.3,0.7v5c0,0.3-0.1,0.5-0.3,0.7
			C16.5,16.9,16.3,17,16,17z M16,2h-5v5h5V2z M16,11h-5v5h5V11z"/>
	</g>
</g>
</svg>
