<?xml version="1.0" encoding="utf-8"?>
<!-- Generator: Adobe Illustrator 18.0.0, SVG Export Plug-In . SVG Version: 6.00 Build 0)  -->
<!DOCTYPE svg PUBLIC "-//W3C//DTD SVG 1.1//EN" "http://www.w3.org/Graphics/SVG/1.1/DTD/svg11.dtd">
<svg version="1.1" id="Layer_1" xmlns="http://www.w3.org/2000/svg" xmlns:xlink="http://www.w3.org/1999/xlink" x="0px" y="0px"
	 viewBox="0 0 18 18" enable-background="new 0 0 18 18" xml:space="preserve">
<g>
	<g opacity="0.2">
		<path fill="#AD6EF4" d="M16.1,8.4C16.7,9,17,9.7,17,10.5c0,0.8-0.3,1.5-0.9,2.1c-0.6,0.6-1.3,0.9-2.1,0.9c-0.1,0-0.5,0-1,0V14
			c0,0.8-0.3,1.5-0.9,2.1C11.5,16.7,10.8,17,10,17H4c-0.8,0-1.5-0.3-2.1-0.9C1.3,15.5,1,14.8,1,14V6.5C1,6.2,1.1,6,1.3,5.8
			C1.5,5.6,1.7,5.5,2,5.5h10c0.3,0,0.5,0.1,0.7,0.3C12.9,6,13,6.2,13,6.5v1c0.5,0,0.9,0,1,0C14.8,7.5,15.5,7.8,16.1,8.4z M3.5,4V1.5
			c0-0.1,0-0.3,0.1-0.4S3.9,1,4,1c0.1,0,0.3,0,0.4,0.1s0.1,0.2,0.1,0.4V4c0,0.1,0,0.3-0.1,0.4S4.1,4.5,4,4.5c-0.1,0-0.3,0-0.4-0.1
			S3.5,4.1,3.5,4z M6.5,4V1.5c0-0.1,0-0.3,0.1-0.4S6.9,1,7,1c0.1,0,0.3,0,0.4,0.1s0.1,0.2,0.1,0.4V4c0,0.1,0,0.3-0.1,0.4
			S7.1,4.5,7,4.5c-0.1,0-0.3,0-0.4-0.1S6.5,4.1,6.5,4z M9.5,4V1.5c0-0.1,0-0.3,0.1-0.4S9.9,1,10,1c0.1,0,0.3,0,0.4,0.1
			s0.1,0.2,0.1,0.4V4c0,0.1,0,0.3-0.1,0.4S10.1,4.5,10,4.5c-0.1,0-0.3,0-0.4-0.1S9.5,4.1,9.5,4z M15.5,11.9c0.4-0.4,0.6-0.9,0.6-1.4
			c0-0.6-0.2-1-0.6-1.4c-0.4-0.4-0.9-0.6-1.5-0.6c-0.1,0-0.5,0-1,0v4c0.6,0,0.9,0,1,0C14.6,12.5,15.1,12.3,15.5,11.9z"/>
	</g>
	<g>
		<path fill="#AD6EF4" d="M16.1,8.4C16.7,9,17,9.7,17,10.5c0,0.8-0.3,1.5-0.9,2.1c-0.6,0.6-1.3,0.9-2.1,0.9c-0.1,0-0.5,0-1,0V14
			c0,0.8-0.3,1.5-0.9,2.1C11.5,16.7,10.8,17,10,17H4c-0.8,0-1.5-0.3-2.1-0.9C1.3,15.5,1,14.8,1,14V6.5C1,6.2,1.1,6,1.3,5.8
			C1.5,5.6,1.7,5.5,2,5.5h10c0.3,0,0.5,0.1,0.7,0.3C12.9,6,13,6.2,13,6.5v1c0.5,0,0.9,0,1,0C14.8,7.5,15.5,7.8,16.1,8.4z M12,6.5H2
			V14c0,0.6,0.2,1,0.6,1.4C3,15.8,3.4,16,4,16h6c0.6,0,1-0.2,1.4-0.6C11.8,15,12,14.6,12,14V6.5z M3.5,4V1.5c0-0.1,0-0.3,0.1-0.4
			S3.9,1,4,1c0.1,0,0.3,0,0.4,0.1s0.1,0.2,0.1,0.4V4c0,0.1,0,0.3-0.1,0.4S4.1,4.5,4,4.5c-0.1,0-0.3,0-0.4-0.1S3.5,4.1,3.5,4z M6.5,4
			V1.5c0-0.1,0-0.3,0.1-0.4S6.9,1,7,1c0.1,0,0.3,0,0.4,0.1s0.1,0.2,0.1,0.4V4c0,0.1,0,0.3-0.1,0.4S7.1,4.5,7,4.5
			c-0.1,0-0.3,0-0.4-0.1S6.5,4.1,6.5,4z M9.5,4V1.5c0-0.1,0-0.3,0.1-0.4S9.9,1,10,1c0.1,0,0.3,0,0.4,0.1s0.1,0.2,0.1,0.4V4
			c0,0.1,0,0.3-0.1,0.4S10.1,4.5,10,4.5c-0.1,0-0.3,0-0.4-0.1S9.5,4.1,9.5,4z M15.5,11.9c0.4-0.4,0.6-0.9,0.6-1.4
			c0-0.6-0.2-1-0.6-1.4c-0.4-0.4-0.9-0.6-1.5-0.6c-0.1,0-0.5,0-1,0v4c0.6,0,0.9,0,1,0C14.6,12.5,15.1,12.3,15.5,11.9z"/>
	</g>
</g>
</svg>
