<?xml version="1.0" encoding="utf-8"?>
<!-- Generator: Adobe Illustrator 18.0.0, SVG Export Plug-In . SVG Version: 6.00 Build 0)  -->
<!DOCTYPE svg PUBLIC "-//W3C//DTD SVG 1.1//EN" "http://www.w3.org/Graphics/SVG/1.1/DTD/svg11.dtd">
<svg version="1.1" id="Layer_1" xmlns="http://www.w3.org/2000/svg" xmlns:xlink="http://www.w3.org/1999/xlink" x="0px" y="0px"
	 viewBox="0 0 18 18" enable-background="new 0 0 18 18" xml:space="preserve">
<g>
	<g opacity="0.2">
		<path fill="#CB6817" d="M16.7,1.2C16.9,1.4,17,1.6,17,1.9V14c0,0.2-0.1,0.5-0.2,0.7c-0.2,0.2-0.4,0.4-0.6,0.4l-6.6,1.8
			C9.4,17,9.2,17,8.9,17c-0.2,0-0.5,0-0.6-0.1l-6.5-1.8c-0.2-0.1-0.4-0.2-0.6-0.4C1.1,14.5,1,14.3,1,14V1.9c0-0.3,0.1-0.5,0.3-0.7
			C1.6,1,1.8,1,2.1,1l6.4,1.8c0.1,0,0.2,0,0.4,0s0.3,0,0.4,0L15.9,1C16.2,1,16.4,1,16.7,1.2z M8.5,3.8c-0.1,0-0.1,0-0.2,0L2,2v12
			c0,0.1,0,0.1,0.1,0.2l6.4,1.8V3.8z"/>
	</g>
	<g>
		<path fill="#CB6817" d="M16.7,1.2C16.9,1.4,17,1.6,17,1.9V14c0,0.2-0.1,0.5-0.2,0.7c-0.2,0.2-0.4,0.4-0.6,0.4l-6.6,1.8
			C9.4,17,9.2,17,8.9,17c-0.2,0-0.5,0-0.6-0.1l-6.5-1.8c-0.2-0.1-0.4-0.2-0.6-0.4C1.1,14.5,1,14.3,1,14V1.9c0-0.3,0.1-0.5,0.3-0.7
			C1.6,1,1.8,1,2.1,1l6.4,1.8c0.1,0,0.2,0,0.4,0s0.3,0,0.4,0L15.9,1C16.2,1,16.4,1,16.7,1.2z M8.5,3.8c-0.1,0-0.1,0-0.2,0L2,2v12
			c0,0.1,0,0.1,0.1,0.2l6.4,1.8V3.8z M7.5,6c0.1,0.1,0.1,0.2,0,0.4C7.4,6.6,7.3,6.7,7,6.7c0,0-0.1,0-0.1,0l-3.5-1
			c-0.1,0-0.2-0.1-0.3-0.2C3,5.4,3,5.2,3,5.1c0-0.1,0.1-0.2,0.2-0.3c0.1-0.1,0.2-0.1,0.4,0l3.5,1C7.3,5.8,7.4,5.9,7.5,6z M7.5,9
			c0.1,0.1,0.1,0.2,0,0.4C7.4,9.6,7.3,9.7,7,9.7c0,0-0.1,0-0.1,0l-3.5-1c-0.1,0-0.2-0.1-0.3-0.2C3,8.4,3,8.2,3,8.1
			c0-0.1,0.1-0.2,0.2-0.3c0.1-0.1,0.2-0.1,0.4,0l3.5,1C7.3,8.8,7.4,8.9,7.5,9z M7.5,12c0.1,0.1,0.1,0.2,0,0.4
			c-0.1,0.2-0.2,0.4-0.5,0.4c0,0-0.1,0-0.1,0l-3.5-1c-0.1,0-0.2-0.1-0.3-0.2C3,11.4,3,11.2,3,11.1c0-0.1,0.1-0.2,0.2-0.3
			c0.1-0.1,0.2-0.1,0.4,0l3.5,1C7.3,11.8,7.4,11.9,7.5,12z M16,2L9.5,3.8h0v12.1l6.4-1.7c0.1,0,0.1-0.1,0.1-0.2V2z M10.6,6.3
			c0-0.1,0-0.2,0-0.4c0.1-0.1,0.2-0.2,0.3-0.2l3.5-1c0.1,0,0.2,0,0.4,0C14.9,4.9,15,5,15,5.1c0,0.1,0,0.3,0,0.4
			c-0.1,0.1-0.2,0.2-0.3,0.2l-3.5,1c0,0-0.1,0-0.1,0C10.8,6.7,10.6,6.6,10.6,6.3z M10.6,9.3c0-0.1,0-0.2,0-0.4
			c0.1-0.1,0.2-0.2,0.3-0.2l3.5-1c0.1,0,0.2,0,0.4,0C14.9,7.9,15,8,15,8.1c0,0.1,0,0.3,0,0.4c-0.1,0.1-0.2,0.2-0.3,0.2l-3.5,1
			c0,0-0.1,0-0.1,0C10.8,9.7,10.6,9.6,10.6,9.3z M10.6,12.3c0-0.1,0-0.2,0-0.4c0.1-0.1,0.2-0.2,0.3-0.2l3.5-1c0.1,0,0.2,0,0.4,0
			c0.1,0.1,0.2,0.2,0.2,0.3c0,0.1,0,0.3,0,0.4c-0.1,0.1-0.2,0.2-0.3,0.2l-3.5,1c0,0-0.1,0-0.1,0C10.8,12.7,10.6,12.6,10.6,12.3z"/>
	</g>
</g>
</svg>
