<?xml version="1.0" encoding="utf-8"?>
<!-- Generator: Adobe Illustrator 18.0.0, SVG Export Plug-In . SVG Version: 6.00 Build 0)  -->
<!DOCTYPE svg PUBLIC "-//W3C//DTD SVG 1.1//EN" "http://www.w3.org/Graphics/SVG/1.1/DTD/svg11.dtd">
<svg version="1.1" id="Layer_1" xmlns="http://www.w3.org/2000/svg" xmlns:xlink="http://www.w3.org/1999/xlink" x="0px" y="0px"
	 viewBox="0 0 18 18" enable-background="new 0 0 18 18" xml:space="preserve">
<g>
	<g opacity="0.2">
		<path fill="#CB6817" d="M16.3,12.7c0.5,0.5,0.7,1.1,0.7,1.8s-0.2,1.3-0.7,1.8c-0.5,0.5-1.1,0.7-1.8,0.7s-1.3-0.2-1.8-0.7
			c-0.5-0.5-0.7-1.1-0.7-1.8c0-0.2,0-0.4,0.1-0.6l-6.6-3.3c-0.5,0.6-1.2,0.9-2,0.9c-0.7,0-1.3-0.2-1.8-0.7C1.2,10.3,1,9.7,1,9
			s0.2-1.3,0.7-1.8c0.5-0.5,1.1-0.7,1.8-0.7c0.7,0,1.3,0.3,1.8,0.8l6.7-3.2C12,3.9,12,3.7,12,3.5c0-0.7,0.2-1.3,0.7-1.8
			C13.2,1.2,13.8,1,14.5,1s1.3,0.2,1.8,0.7C16.8,2.2,17,2.8,17,3.5s-0.2,1.3-0.7,1.8C15.8,5.8,15.2,6,14.5,6c-0.9,0-1.5-0.3-2-1
			L5.9,8.2C6,8.5,6,8.7,6,9c0,0.2,0,0.4-0.1,0.7l6.6,3.3c0.5-0.7,1.2-1,2-1C15.2,12,15.8,12.2,16.3,12.7z M5,9
			c0-0.4-0.1-0.8-0.4-1.1C4.3,7.6,3.9,7.5,3.5,7.5c-0.4,0-0.8,0.1-1.1,0.4C2.1,8.2,2,8.6,2,9c0,0.4,0.1,0.8,0.4,1.1
			c0.3,0.3,0.6,0.4,1.1,0.4c0.4,0,0.8-0.1,1.1-0.4C4.9,9.8,5,9.4,5,9z"/>
	</g>
	<g>
		<path fill="#CB6817" d="M16.3,12.7c0.5,0.5,0.7,1.1,0.7,1.8s-0.2,1.3-0.7,1.8c-0.5,0.5-1.1,0.7-1.8,0.7s-1.3-0.2-1.8-0.7
			c-0.5-0.5-0.7-1.1-0.7-1.8c0-0.2,0-0.4,0.1-0.6l-6.6-3.3c-0.5,0.6-1.2,0.9-2,0.9c-0.7,0-1.3-0.2-1.8-0.7C1.2,10.3,1,9.7,1,9
			s0.2-1.3,0.7-1.8c0.5-0.5,1.1-0.7,1.8-0.7c0.7,0,1.3,0.3,1.8,0.8l6.7-3.2C12,3.9,12,3.7,12,3.5c0-0.7,0.2-1.3,0.7-1.8
			C13.2,1.2,13.8,1,14.5,1s1.3,0.2,1.8,0.7C16.8,2.2,17,2.8,17,3.5s-0.2,1.3-0.7,1.8C15.8,5.8,15.2,6,14.5,6c-0.9,0-1.5-0.3-2-1
			L5.9,8.2C6,8.5,6,8.7,6,9c0,0.2,0,0.4-0.1,0.7l6.6,3.3c0.5-0.7,1.2-1,2-1C15.2,12,15.8,12.2,16.3,12.7z M5,9
			c0-0.4-0.1-0.8-0.4-1.1C4.3,7.6,3.9,7.5,3.5,7.5c-0.4,0-0.8,0.1-1.1,0.4C2.1,8.2,2,8.6,2,9c0,0.4,0.1,0.8,0.4,1.1
			c0.3,0.3,0.6,0.4,1.1,0.4c0.4,0,0.8-0.1,1.1-0.4C4.9,9.8,5,9.4,5,9z M13,3.5c0,0.4,0.1,0.8,0.4,1.1C13.7,4.9,14.1,5,14.5,5
			c0.4,0,0.8-0.1,1.1-0.4C15.9,4.3,16,3.9,16,3.5c0-0.4-0.1-0.8-0.4-1.1C15.3,2.1,14.9,2,14.5,2c-0.4,0-0.8,0.1-1.1,0.4
			C13.1,2.7,13,3.1,13,3.5z M16,14.5c0-0.4-0.1-0.8-0.4-1.1c-0.3-0.3-0.6-0.4-1.1-0.4c-0.4,0-0.8,0.1-1.1,0.4
			c-0.3,0.3-0.4,0.6-0.4,1.1c0,0.4,0.1,0.8,0.4,1.1c0.3,0.3,0.6,0.4,1.1,0.4c0.4,0,0.8-0.1,1.1-0.4C15.9,15.3,16,14.9,16,14.5z"/>
	</g>
</g>
</svg>
