<?xml version="1.0" encoding="utf-8"?>
<!-- Generator: Adobe Illustrator 18.0.0, SVG Export Plug-In . SVG Version: 6.00 Build 0)  -->
<!DOCTYPE svg PUBLIC "-//W3C//DTD SVG 1.1//EN" "http://www.w3.org/Graphics/SVG/1.1/DTD/svg11.dtd">
<svg version="1.1" id="Layer_1" xmlns="http://www.w3.org/2000/svg" xmlns:xlink="http://www.w3.org/1999/xlink" x="0px" y="0px"
	 viewBox="0 0 18 18" enable-background="new 0 0 18 18" xml:space="preserve">
<g>
	<g opacity="0.2">
		<path fill="#4CC159" d="M15.3,1.4c0.3,0.3,0.5,0.6,0.5,1.1v13c0,0.4-0.2,0.8-0.5,1.1c-0.3,0.3-0.7,0.4-1,0.4h-10
			c-0.2,0-0.5-0.1-0.7-0.2c-0.2-0.1-0.3-0.4-0.3-0.8v-2H2.8c-0.1,0-0.2,0-0.3-0.1s-0.1-0.2-0.1-0.3c0-0.1,0-0.2,0.1-0.3
			S2.6,13,2.8,13h0.5v-2H2.8c-0.1,0-0.2,0-0.3-0.1s-0.1-0.2-0.1-0.3c0-0.1,0-0.3,0.1-0.4C2.5,10.1,2.6,10,2.8,10h0.5V8H2.8
			C2.6,8,2.5,8,2.4,7.9S2.3,7.7,2.3,7.5c0-0.1,0-0.3,0.1-0.4C2.5,7.1,2.6,7,2.8,7h0.5V5H2.7C2.6,5,2.5,5,2.4,4.9
			C2.3,4.8,2.2,4.7,2.2,4.5c0-0.1,0.1-0.2,0.2-0.3C2.5,4.1,2.6,4,2.7,4h0.6V2c0-0.3,0.1-0.5,0.2-0.7C3.7,1.1,4,1,4.3,1h10
			C14.7,1,15,1.1,15.3,1.4z M14.8,2.5c0-0.1-0.1-0.3-0.2-0.4C14.5,2,14.4,2,14.3,2h-1v14h1c0.1,0,0.2,0,0.3-0.1
			c0.1-0.1,0.2-0.2,0.2-0.4V2.5z"/>
	</g>
	<g>
		<path fill="#4CC159" d="M15.3,1.4c0.3,0.3,0.5,0.6,0.5,1.1v13c0,0.4-0.2,0.8-0.5,1.1c-0.3,0.3-0.7,0.4-1,0.4h-10
			c-0.2,0-0.5-0.1-0.7-0.2c-0.2-0.1-0.3-0.4-0.3-0.8v-2H2.8c-0.1,0-0.2,0-0.3-0.1s-0.1-0.2-0.1-0.3c0-0.1,0-0.2,0.1-0.3
			S2.6,13,2.8,13h0.5v-2H2.8c-0.1,0-0.2,0-0.3-0.1s-0.1-0.2-0.1-0.3c0-0.1,0-0.3,0.1-0.4C2.5,10.1,2.6,10,2.8,10h0.5V8H2.8
			C2.6,8,2.5,8,2.4,7.9S2.3,7.7,2.3,7.5c0-0.1,0-0.3,0.1-0.4C2.5,7.1,2.6,7,2.8,7h0.5V5H2.7C2.6,5,2.5,5,2.4,4.9
			C2.3,4.8,2.2,4.7,2.2,4.5c0-0.1,0.1-0.2,0.2-0.3C2.5,4.1,2.6,4,2.7,4h0.6V2c0-0.3,0.1-0.5,0.2-0.7C3.7,1.1,4,1,4.3,1h10
			C14.7,1,15,1.1,15.3,1.4z M12.3,16V2h-8h0v0v2h0.5c0.1,0,0.3,0,0.4,0.1s0.1,0.2,0.1,0.3c0,0.1,0,0.2-0.1,0.3S4.9,5,4.8,5H4.3v2
			h0.5C4.9,7,5,7.1,5.1,7.2c0.1,0.1,0.1,0.2,0.1,0.4c0,0.1,0,0.2-0.1,0.3S4.9,8,4.8,8H4.3v2h0.5c0.1,0,0.3,0.1,0.4,0.2
			c0.1,0.1,0.1,0.2,0.1,0.4c0,0.1,0,0.2-0.1,0.3S4.9,11,4.8,11H4.3v2h0.5c0.1,0,0.3,0,0.4,0.1s0.1,0.2,0.1,0.3c0,0.1,0,0.2-0.1,0.3
			S4.9,14,4.8,14H4.3v2H12.3z M14.8,2.5c0-0.1-0.1-0.3-0.2-0.4C14.5,2,14.4,2,14.3,2h-1v14h1c0.1,0,0.2,0,0.3-0.1
			c0.1-0.1,0.2-0.2,0.2-0.4V2.5z"/>
	</g>
</g>
</svg>
