<?xml version="1.0" encoding="utf-8"?>
<!-- Generator: Adobe Illustrator 18.0.0, SVG Export Plug-In . SVG Version: 6.00 Build 0)  -->
<!DOCTYPE svg PUBLIC "-//W3C//DTD SVG 1.1//EN" "http://www.w3.org/Graphics/SVG/1.1/DTD/svg11.dtd">
<svg version="1.1" id="Layer_1" xmlns="http://www.w3.org/2000/svg" xmlns:xlink="http://www.w3.org/1999/xlink" x="0px" y="0px"
	 viewBox="0 0 18 18" enable-background="new 0 0 18 18" xml:space="preserve">
<g>
	<g opacity="0.2">
		<path fill="#FF5900" d="M9,3.7c1.3-1.3,2.5-1.9,3.5-1.9c1.2,0,2.3,0.4,3.2,1.3C16.6,4,17,5.1,17,6.4c0,1.3-0.5,2.4-1.4,3.3
			c0,0-1.9,2.1-5.6,6c-0.3,0.3-0.6,0.4-1,0.4s-0.8-0.1-1-0.4L2.4,9.6C1.4,8.7,1,7.6,1,6.3C1,5,1.4,3.9,2.4,3
			c0.8-0.8,1.9-1.2,3.1-1.2C6.5,1.8,7.7,2.4,9,3.7z"/>
	</g>
	<g>
		<path fill="#FF5900" d="M9,3.7c1.3-1.3,2.5-1.9,3.5-1.9c1.2,0,2.3,0.4,3.2,1.3C16.6,4,17,5.1,17,6.4c0,1.3-0.5,2.4-1.4,3.3
			c0,0-1.9,2.1-5.6,6c-0.3,0.3-0.6,0.4-1,0.4s-0.8-0.1-1-0.4L2.4,9.6C1.4,8.7,1,7.6,1,6.3C1,5,1.4,3.9,2.4,3
			c0.8-0.8,1.9-1.2,3.1-1.2C6.5,1.8,7.7,2.4,9,3.7z M3.1,3.7C2.3,4.4,2,5.3,2,6.3c0,1,0.4,1.9,1.1,2.6c0.4,0.4,2.2,2.4,5.6,6.2
			c0.1,0.1,0.2,0.1,0.3,0.1s0.2,0,0.3-0.1c3.7-4,5.6-6,5.6-6.1C15.7,8.3,16,7.5,16,6.4c0-1-0.4-1.9-1.1-2.6
			c-0.7-0.7-1.6-1.1-2.5-1.1c-0.8,0-1.7,0.6-2.8,1.7L9,5.1L8.3,4.4C7.2,3.3,6.2,2.8,5.5,2.8C4.5,2.8,3.7,3.1,3.1,3.7z"/>
	</g>
</g>
</svg>
