<?xml version="1.0" encoding="utf-8"?>
<!-- Generator: Adobe Illustrator 18.0.0, SVG Export Plug-In . SVG Version: 6.00 Build 0)  -->
<!DOCTYPE svg PUBLIC "-//W3C//DTD SVG 1.1//EN" "http://www.w3.org/Graphics/SVG/1.1/DTD/svg11.dtd">
<svg version="1.1" id="Layer_1" xmlns="http://www.w3.org/2000/svg" xmlns:xlink="http://www.w3.org/1999/xlink" x="0px" y="0px"
	 viewBox="0 0 18 18" enable-background="new 0 0 18 18" xml:space="preserve">
<g>
	<g opacity="0.2">
		<path fill="#AE74F0" d="M17,3.5v12c0,0.3-0.2,0.5-0.5,0.5h-15C1.2,16,1,15.8,1,15.5v-12C1,3.2,1.2,3,1.5,3h2V2.5
			C3.5,2.2,3.7,2,4,2h1.5C5.8,2,6,2.2,6,2.5V3h6V2.5C12,2.2,12.2,2,12.5,2H14c0.3,0,0.5,0.2,0.5,0.5V3h2C16.8,3,17,3.2,17,3.5z
			 M4.5,4H5V3H4.5V4z M5.5,8h-1v1h1V8z M5.5,12h-1v1h1V12z M9.5,8h-1v1h1V8z M9.5,12h-1v1h1V12z M13.5,8h-1v1h1V8z M13.5,12h-1v1h1
			V12z M13,4h0.5V3H13V4z"/>
	</g>
	<g>
		<path fill="#AE74F0" d="M17,3.5v12c0,0.3-0.2,0.5-0.5,0.5h-15C1.2,16,1,15.8,1,15.5v-12C1,3.2,1.2,3,1.5,3h2V2.5
			C3.5,2.2,3.7,2,4,2h1.5C5.8,2,6,2.2,6,2.5V3h6V2.5C12,2.2,12.2,2,12.5,2H14c0.3,0,0.5,0.2,0.5,0.5V3h2C16.8,3,17,3.2,17,3.5z
			 M16,4h-1.5v0.5C14.5,4.8,14.3,5,14,5h-1.5C12.2,5,12,4.8,12,4.5V4H6v0.5C6,4.8,5.8,5,5.5,5H4C3.7,5,3.5,4.8,3.5,4.5V4H2v11h14V4z
			 M6.5,7.5v2C6.5,9.8,6.3,10,6,10H4c-0.3,0-0.5-0.2-0.5-0.5v-2C3.5,7.2,3.7,7,4,7h2C6.3,7,6.5,7.2,6.5,7.5z M6.5,11.5v2
			C6.5,13.8,6.3,14,6,14H4c-0.3,0-0.5-0.2-0.5-0.5v-2C3.5,11.2,3.7,11,4,11h2C6.3,11,6.5,11.2,6.5,11.5z M4.5,4H5V3H4.5V4z M5.5,8
			h-1v1h1V8z M5.5,12h-1v1h1V12z M10.5,7.5v2c0,0.3-0.2,0.5-0.5,0.5H8c-0.3,0-0.5-0.2-0.5-0.5v-2C7.5,7.2,7.7,7,8,7h2
			C10.3,7,10.5,7.2,10.5,7.5z M10.5,11.5v2c0,0.3-0.2,0.5-0.5,0.5H8c-0.3,0-0.5-0.2-0.5-0.5v-2C7.5,11.2,7.7,11,8,11h2
			C10.3,11,10.5,11.2,10.5,11.5z M9.5,8h-1v1h1V8z M9.5,12h-1v1h1V12z M14.5,7.5v2c0,0.3-0.2,0.5-0.5,0.5h-2c-0.3,0-0.5-0.2-0.5-0.5
			v-2C11.5,7.2,11.7,7,12,7h2C14.3,7,14.5,7.2,14.5,7.5z M14.5,11.5v2c0,0.3-0.2,0.5-0.5,0.5h-2c-0.3,0-0.5-0.2-0.5-0.5v-2
			c0-0.3,0.2-0.5,0.5-0.5h2C14.3,11,14.5,11.2,14.5,11.5z M13.5,8h-1v1h1V8z M13.5,12h-1v1h1V12z M13,4h0.5V3H13V4z"/>
	</g>
</g>
</svg>
