<?xml version="1.0" encoding="utf-8"?>
<!-- Generator: Adobe Illustrator 18.0.0, SVG Export Plug-In . SVG Version: 6.00 Build 0)  -->
<!DOCTYPE svg PUBLIC "-//W3C//DTD SVG 1.1//EN" "http://www.w3.org/Graphics/SVG/1.1/DTD/svg11.dtd">
<svg version="1.1" id="Layer_1" xmlns="http://www.w3.org/2000/svg" xmlns:xlink="http://www.w3.org/1999/xlink" x="0px" y="0px"
	 viewBox="0 0 18 18" enable-background="new 0 0 18 18" xml:space="preserve">
<g>
	<g opacity="0.2">
		<path fill="#4CC159" d="M13.5,4.5V7c0,0.7-0.2,1.5-0.5,2.4c-0.3,0.9-0.8,1.5-1.4,2l4.3,2.1l0.2,0.1c0.2,0.1,0.3,0.2,0.5,0.3
			c0.2,0.2,0.2,0.3,0.2,0.5V16c0,0.3-0.1,0.5-0.3,0.7C16.5,16.9,16.3,17,16,17H2c-0.3,0-0.5-0.1-0.7-0.3C1.1,16.5,1,16.3,1,16v-1.5
			c0-0.2,0.1-0.3,0.3-0.5c0.2-0.2,0.3-0.3,0.4-0.4c0.1-0.1,0.2-0.1,0.3-0.1l4.4-2.1C5.8,10.9,5.3,10.2,5,9.3S4.5,7.7,4.5,7V4.5
			c0-0.8,0.5-1.6,1.4-2.4C6.9,1.4,7.9,1,9,1s2.1,0.4,3.1,1.1C13,2.9,13.5,3.7,13.5,4.5z"/>
	</g>
	<g>
		<path fill="#4CC159" d="M13.5,4.5V7c0,0.7-0.2,1.5-0.5,2.4c-0.3,0.9-0.8,1.5-1.4,2l4.3,2.1l0.2,0.1c0.2,0.1,0.3,0.2,0.5,0.3
			c0.2,0.2,0.2,0.3,0.2,0.5V16c0,0.3-0.1,0.5-0.3,0.7C16.5,16.9,16.3,17,16,17H2c-0.3,0-0.5-0.1-0.7-0.3C1.1,16.5,1,16.3,1,16v-1.5
			c0-0.2,0.1-0.3,0.3-0.5c0.2-0.2,0.3-0.3,0.4-0.4c0.1-0.1,0.2-0.1,0.3-0.1l4.4-2.1C5.8,10.9,5.3,10.2,5,9.3S4.5,7.7,4.5,7V4.5
			c0-0.8,0.5-1.6,1.4-2.4C6.9,1.4,7.9,1,9,1s2.1,0.4,3.1,1.1C13,2.9,13.5,3.7,13.5,4.5z M6.6,2.8C5.9,3.4,5.5,4,5.5,4.5V7
			c0,0.6,0.1,1.2,0.4,2c0.3,0.7,0.6,1.3,1.1,1.7c0.3,0.2,0.4,0.6,0.3,0.9c0,0.4-0.2,0.6-0.6,0.8l-4.4,2.1C2.1,14.5,2,14.7,2,15v1h14
			v-1c0-0.3-0.1-0.5-0.4-0.6h0l-4.3-2.1c-0.3-0.2-0.5-0.4-0.6-0.8c0-0.4,0.1-0.7,0.4-0.9c0.5-0.4,0.8-1,1.1-1.7
			c0.2-0.7,0.4-1.4,0.4-2V4.5c0-0.5-0.4-1.1-1.1-1.7S9.8,2,9,2C8.2,2,7.4,2.3,6.6,2.8z"/>
	</g>
</g>
</svg>
