<?xml version="1.0" encoding="utf-8"?>
<!-- Generator: Adobe Illustrator 18.0.0, SVG Export Plug-In . SVG Version: 6.00 Build 0)  -->
<!DOCTYPE svg PUBLIC "-//W3C//DTD SVG 1.1//EN" "http://www.w3.org/Graphics/SVG/1.1/DTD/svg11.dtd">
<svg version="1.1" id="Layer_1" xmlns="http://www.w3.org/2000/svg" xmlns:xlink="http://www.w3.org/1999/xlink" x="0px" y="0px"
	 viewBox="0 0 18 18" enable-background="new 0 0 18 18" xml:space="preserve">
<g>
	<g>
		<path fill="#CB6817" d="M16.7,1.5C16.9,1.7,17,2,17,2.2v13.5c0,0.3-0.1,0.5-0.3,0.7c-0.2,0.2-0.4,0.3-0.7,0.3H2
			c-0.3,0-0.5-0.1-0.7-0.3C1.1,16.3,1,16,1,15.8V2.2C1,2,1.1,1.7,1.3,1.5C1.5,1.3,1.7,1.2,2,1.2h14C16.3,1.2,16.5,1.3,16.7,1.5z
			 M16,2.2H2v13.5h14V2.2z M3.1,5.1C3,5,3,4.9,3,4.8V4.2C3,4.1,3,4,3.1,3.9c0.1-0.1,0.2-0.2,0.4-0.2h1c0.1,0,0.3,0.1,0.4,0.2
			C5,4,5,4.1,5,4.2v0.5C5,4.9,5,5,4.9,5.1S4.6,5.2,4.5,5.2h-1C3.4,5.2,3.2,5.2,3.1,5.1z M3.1,8.1C3,8,3,7.9,3,7.8V7.2
			C3,7.1,3,7,3.1,6.9c0.1-0.1,0.2-0.2,0.4-0.2h1c0.1,0,0.3,0.1,0.4,0.2C5,7,5,7.1,5,7.2v0.5C5,7.9,5,8,4.9,8.1S4.6,8.2,4.5,8.2h-1
			C3.4,8.2,3.2,8.2,3.1,8.1z M3.1,11.1C3,11,3,10.9,3,10.8v-0.5c0-0.1,0-0.2,0.1-0.3c0.1-0.1,0.2-0.2,0.4-0.2h1
			c0.1,0,0.3,0.1,0.4,0.2C5,10,5,10.1,5,10.2v0.5c0,0.1,0,0.3-0.1,0.4s-0.2,0.1-0.4,0.1h-1C3.4,11.2,3.2,11.2,3.1,11.1z M3.1,14.1
			C3,14,3,13.9,3,13.8v-0.5c0-0.1,0-0.2,0.1-0.3c0.1-0.1,0.2-0.2,0.4-0.2h1c0.1,0,0.3,0.1,0.4,0.2C5,13,5,13.1,5,13.2v0.5
			c0,0.1,0,0.3-0.1,0.4s-0.2,0.1-0.4,0.1h-1C3.4,14.2,3.2,14.2,3.1,14.1z M13.1,5.1C13,5,13,4.9,13,4.8V4.2c0-0.1,0-0.2,0.1-0.3
			c0.1-0.1,0.2-0.2,0.4-0.2h1c0.1,0,0.3,0.1,0.4,0.2C15,4,15,4.1,15,4.2v0.5c0,0.1,0,0.3-0.1,0.4s-0.2,0.1-0.4,0.1h-1
			C13.4,5.2,13.2,5.2,13.1,5.1z M13.1,8.1C13,8,13,7.9,13,7.8V7.2c0-0.1,0-0.2,0.1-0.3c0.1-0.1,0.2-0.2,0.4-0.2h1
			c0.1,0,0.3,0.1,0.4,0.2C15,7,15,7.1,15,7.2v0.5c0,0.1,0,0.3-0.1,0.4s-0.2,0.1-0.4,0.1h-1C13.4,8.2,13.2,8.2,13.1,8.1z M13.1,11.1
			C13,11,13,10.9,13,10.8v-0.5c0-0.1,0-0.2,0.1-0.3c0.1-0.1,0.2-0.2,0.4-0.2h1c0.1,0,0.3,0.1,0.4,0.2C15,10,15,10.1,15,10.2v0.5
			c0,0.1,0,0.3-0.1,0.4s-0.2,0.1-0.4,0.1h-1C13.4,11.2,13.2,11.2,13.1,11.1z M13.1,14.1C13,14,13,13.9,13,13.8v-0.5
			c0-0.1,0-0.2,0.1-0.3c0.1-0.1,0.2-0.2,0.4-0.2h1c0.1,0,0.3,0.1,0.4,0.2C15,13,15,13.1,15,13.2v0.5c0,0.1,0,0.3-0.1,0.4
			s-0.2,0.1-0.4,0.1h-1C13.4,14.2,13.2,14.2,13.1,14.1z"/>
	</g>
	<g opacity="0.2">
		<path fill="#CB6817" d="M16.7,1.5C16.9,1.7,17,2,17,2.2v13.5c0,0.3-0.1,0.5-0.3,0.7c-0.2,0.2-0.4,0.3-0.7,0.3H2
			c-0.3,0-0.5-0.1-0.7-0.3C1.1,16.3,1,16,1,15.8V2.2C1,2,1.1,1.7,1.3,1.5C1.5,1.3,1.7,1.2,2,1.2h14C16.3,1.2,16.5,1.3,16.7,1.5z"/>
	</g>
</g>
</svg>
