<?xml version="1.0" encoding="utf-8"?>
<!-- Generator: Adobe Illustrator 18.0.0, SVG Export Plug-In . SVG Version: 6.00 Build 0)  -->
<!DOCTYPE svg PUBLIC "-//W3C//DTD SVG 1.1//EN" "http://www.w3.org/Graphics/SVG/1.1/DTD/svg11.dtd">
<svg version="1.1" id="Layer_1" xmlns="http://www.w3.org/2000/svg" xmlns:xlink="http://www.w3.org/1999/xlink" x="0px" y="0px"
	 viewBox="0 0 18 18" enable-background="new 0 0 18 18" xml:space="preserve">
<g>
	<g opacity="0.2">
		<path fill="#00A8FF" d="M17,8c0,1.7-0.8,3.1-2.3,4.2C13.1,13.4,11.2,14,9,14c-0.1,0-0.1,0-0.2,0c-0.1,0-0.1,0-0.2,0
			c-0.3,0-0.6,0-0.9-0.1c-0.2,0.3-0.7,0.7-1.5,1.2c-0.7,0.5-1.4,0.8-2.1,0.9h0H4c-0.1,0-0.3,0-0.3-0.1c-0.1-0.1-0.1-0.2-0.1-0.3
			c0-0.1,0-0.1,0-0.2c0.5-0.9,0.8-1.7,0.8-2.4v0c-1.1-0.5-1.9-1.2-2.5-2.1C1.3,10,1,9,1,8c0-1.7,0.8-3.1,2.3-4.2C4.9,2.6,6.8,2,9,2
			c2.2,0,3.3,0,3.3,0s0.8,0.6,2.3,1.8C16.2,4.9,17,6.3,17,8z"/>
	</g>
	<g>
		<path fill="#00A8FF" d="M17,8c0,1.7-0.8,3.1-2.3,4.2C13.1,13.4,11.2,14,9,14c-0.1,0-0.1,0-0.2,0c-0.1,0-0.1,0-0.2,0
			c-0.3,0-0.6,0-0.9-0.1c-0.2,0.3-0.7,0.7-1.5,1.2c-0.7,0.5-1.4,0.8-2.1,0.9h0H4c-0.1,0-0.3,0-0.3-0.1c-0.1-0.1-0.1-0.2-0.1-0.3
			c0-0.1,0-0.1,0-0.2c0.5-0.9,0.8-1.7,0.8-2.4v0c-1.1-0.5-1.9-1.2-2.5-2.1C1.3,10,1,9,1,8c0-1.7,0.8-3.1,2.3-4.2C4.9,2.6,6.8,2,9,2
			c2.2,0,3.3,0,3.3,0s0.8,0.6,2.3,1.8C16.2,4.9,17,6.3,17,8z M2,8c0,0.8,0.2,1.6,0.7,2.3c0.5,0.7,1.2,1.3,2,1.8l0.6,0.3v0.6V13v0
			c0,0.5-0.1,1-0.3,1.6c0.4-0.2,0.8-0.5,1.2-0.7c0.4-0.3,0.6-0.5,0.7-0.6l0.3-0.4l0.6,0.1C8.1,13,8.3,13,8.6,13h0.2H9
			c1.9,0,3.6-0.5,5-1.5c1.4-1,2-2.2,2-3.5s-0.7-2.6-2-3.5c-1.4-1-3-1.5-5-1.5S5.4,3.5,4,4.5C2.7,5.4,2,6.6,2,8z"/>
	</g>
</g>
</svg>
